<?xml version="1.0" standalone="no"?>
<!DOCTYPE svg PUBLIC "-//W3C//DTD SVG 20010904//EN"
 "http://www.w3.org/TR/2001/REC-SVG-20010904/DTD/svg10.dtd">
<svg version="1.0" xmlns="http://www.w3.org/2000/svg"
 width="700.000000pt" height="700.000000pt" viewBox="0 0 700.000000 700.000000"
 preserveAspectRatio="xMidYMid meet">
<metadata>
Created by potrace 1.14, written by Peter Selinger 2001-2017
</metadata>
<g transform="translate(0.000000,700.000000) scale(0.100000,-0.100000)"
fill="#000000" stroke="none">
<path d="M10 3495 l0 -3495 3495 0 3495 0 0 3495 0 3495 -3495 0 -3495 0 0
-3495z m3730 2200 c46 -24 52 -62 48 -322 l-3 -233 -28 -27 -27 -28 -620 -5
c-489 -4 -622 -8 -632 -18 -19 -19 -19 -955 0 -974 10 -10 111 -14 453 -18
l439 -5 -19 -35 c-74 -139 -326 -567 -339 -577 -12 -10 -80 -13 -262 -13 -197
0 -250 -3 -266 -14 -18 -14 -19 -34 -24 -483 l-5 -468 -219 -380 c-342 -594
-398 -687 -408 -677 -5 5 43 129 118 303 69 162 128 299 131 305 3 8 -35 13
-129 16 -143 5 -179 15 -197 55 -8 17 -11 516 -11 1786 0 1603 1 1765 16 1785
9 13 26 27 38 32 11 5 448 9 969 9 826 1 952 -1 977 -14z m650 -166 c0 -9 -92
-230 -224 -538 l-36 -84 88 7 c198 15 421 -26 572 -105 295 -153 440 -429 440
-837 0 -150 -11 -184 -67 -203 -55 -20 -569 -20 -605 0 -38 20 -49 53 -59 185
-13 176 -38 237 -112 280 -59 35 -138 47 -332 53 -154 5 -222 1 -382 -23 l-43
-7 365 633 c201 348 368 637 371 641 7 13 24 11 24 -2z m-865 -1905 c57 -93
186 -151 380 -173 327 -37 489 -67 699 -127 327 -94 510 -249 608 -516 44
-122 57 -194 68 -392 31 -516 -80 -823 -364 -1010 -197 -130 -342 -156 -876
-156 -501 0 -646 18 -816 101 -154 75 -281 203 -359 364 -68 139 -86 226 -92
452 l-6 192 31 30 30 31 301 0 c299 0 300 0 327 -23 30 -26 42 -79 44 -187 1
-142 45 -241 122 -279 70 -33 130 -42 348 -47 387 -11 509 29 557 184 20 64
29 333 14 391 -23 83 -123 165 -257 211 -53 18 -95 26 -389 65 -241 32 -549
113 -701 184 -91 43 -229 162 -221 191 3 12 462 815 506 885 3 6 8 -65 11
-156 5 -163 5 -166 35 -215z"/>
</g>
</svg>
