<?xml version="1.0" standalone="no"?>
<!DOCTYPE svg PUBLIC "-//W3C//DTD SVG 20010904//EN"
 "http://www.w3.org/TR/2001/REC-SVG-20010904/DTD/svg10.dtd">
<svg version="1.0" xmlns="http://www.w3.org/2000/svg"
 width="600.000000pt" height="600.000000pt" viewBox="0 0 600.000000 600.000000"
 preserveAspectRatio="xMidYMid meet">
<metadata>
Created by potrace 1.14, written by Peter Selinger 2001-2017
</metadata>
<g transform="translate(0.000000,600.000000) scale(0.100000,-0.100000)"
fill="#000000" stroke="none">
<path d="M1922 5082 c-8 -2 -12 -29 -12 -77 0 -41 -4 -76 -9 -79 -10 -6 -56
-8 -91 -3 -14 2 -31 -1 -37 -6 -9 -6 -13 -5 -13 2 0 7 -5 9 -12 5 -16 -10 -78
-12 -84 -2 -3 4 -15 4 -27 -1 -12 -5 -30 -7 -39 -6 -20 4 -21 1 -20 -97 l0
-68 -84 0 -84 0 0 -85 0 -84 -62 0 c-116 1 -105 9 -106 -77 0 -44 -5 -80 -11
-84 -6 -3 -43 -6 -81 -5 -39 1 -71 -1 -71 -4 -1 -3 -2 -342 -3 -753 l-2 -748
51 -1 c27 -1 62 0 77 1 14 1 29 -4 33 -9 3 -6 7 -83 7 -170 l1 -159 75 -1 c41
-1 78 -4 83 -6 14 -9 6 -155 -8 -156 -7 -1 -40 -3 -73 -4 -33 -1 -64 -3 -69
-4 -4 0 -9 -35 -9 -77 0 -42 -3 -79 -7 -82 -3 -4 -41 -7 -83 -7 l-77 0 0 -167
0 -167 130 0 c71 0 147 0 168 0 l37 -1 0 -334 0 -335 162 0 c89 -1 164 -4 167
-7 3 -3 6 -40 6 -82 l0 -77 83 0 c93 0 85 11 82 -108 -1 -41 2 -57 12 -58 20
-1 259 -1 294 0 l31 1 -1 67 c-2 99 0 101 84 99 83 -2 88 2 85 83 -4 92 -14
86 158 83 84 -1 158 -4 165 -7 8 -3 12 -29 12 -83 l0 -78 160 1 c87 0 162 4
167 8 4 4 7 39 8 77 0 38 3 71 5 74 5 4 81 9 133 7 l27 -1 0 -80 c0 -57 4 -80
13 -81 6 -1 44 -2 82 -3 l70 -1 3 -83 c3 -77 4 -82 25 -83 78 -3 301 1 305 6
3 3 5 72 4 153 0 82 3 154 8 161 7 12 51 14 288 11 l42 0 0 -83 0 -83 285 1
c188 0 285 -3 285 -10 0 -6 3 -6 8 1 4 7 51 10 129 9 103 -1 124 2 127 15 7
26 1 635 -6 646 -4 6 -37 9 -78 8 -39 0 -73 3 -76 8 -3 5 -6 152 -6 327 0 175
-3 322 -6 327 -4 6 -41 10 -82 9 l-75 0 -3 586 -2 586 65 1 c36 0 73 1 84 1
18 1 18 16 19 336 0 198 -3 335 -9 335 -5 0 -9 -6 -9 -12 0 -9 -3 -10 -8 -2
-5 8 -57 11 -157 10 l-150 -1 -1 -70 c-1 -38 -2 -76 -3 -82 -1 -9 -21 -12 -69
-11 -38 1 -73 -1 -79 -5 -17 -11 -19 8 -18 176 0 86 -2 158 -5 158 -3 1 -39 2
-80 3 l-75 1 -3 83 -3 82 -42 1 c-23 0 -60 1 -82 2 l-40 2 -2 50 c-1 28 -2 65
-2 83 l-1 32 -84 0 -84 0 1 84 c1 46 0 83 -2 80 -2 -2 -10 1 -18 7 -7 6 -13 7
-13 2 0 -8 -46 -10 -60 -3 -3 1 -9 1 -15 0 -20 -5 -216 -2 -222 3 -2 3 -6 41
-6 84 l-2 78 -252 1 c-162 0 -250 -3 -246 -9 4 -6 1 -7 -8 -1 -20 12 -480 13
-472 1 4 -6 1 -7 -8 -1 -20 12 -320 13 -312 1 4 -6 1 -7 -8 -1 -14 9 -164 14
-187 6z"/>
</g>
</svg>
